<svg width="17" height="17" fill="none" xmlns="http://www.w3.org/2000/svg"><g clip-path="url(#clip0_519_3511)"><path d="M4.037 7.85L11.454.433a.905.905 0 01.644-.266c.245 0 .474.094.645.266l.546.546a.913.913 0 010 1.29L7.061 8.496l6.235 6.235c.172.171.267.4.267.644a.906.906 0 01-.267.645l-.546.546a.905.905 0 01-.645.266.905.905 0 01-.644-.266L4.037 9.144a.906.906 0 01-.266-.647c0-.245.094-.475.266-.647z" fill="#B1B1B1"/></g><defs><clipPath id="clip0_519_3511"><path fill="#fff" transform="matrix(-1 0 0 1 17 .167)" d="M0 0h16.667v16.667H0z"/></clipPath></defs></svg>