<svg width="18" height="17" fill="none" xmlns="http://www.w3.org/2000/svg"><g clip-path="url(#clip0_519_3505)"><path d="M13.797 7.85L6.38.433a.905.905 0 00-.644-.266.905.905 0 00-.645.266l-.546.546a.913.913 0 000 1.29l6.228 6.228-6.235 6.235a.906.906 0 00-.267.644c0 .245.095.473.267.645l.546.546c.172.172.4.266.645.266a.905.905 0 00.644-.266l7.424-7.423a.907.907 0 00.266-.647.906.906 0 00-.266-.647z" fill="#B1B1B1"/></g><defs><clipPath id="clip0_519_3505"><path fill="#fff" transform="translate(.834 .167)" d="M0 0h16.667v16.667H0z"/></clipPath></defs></svg>