<svg width="15" height="15" fill="none" xmlns="http://www.w3.org/2000/svg"><g clip-path="url(#clip0_519_4527)"><path d="M8.363 10.978l6.143-6.316a.76.76 0 00.216-.545.76.76 0 00-.231-.538l-.465-.453a.767.767 0 00-1.083.015L7.785 8.445l-5.31-5.164a.76.76 0 00-.545-.216.761.761 0 00-.538.231l-.452.466a.76.76 0 00-.217.544.76.76 0 00.232.539l6.322 6.148c.146.143.34.22.546.216a.76.76 0 00.54-.231z" fill="#28553F"/></g><defs><clipPath id="clip0_519_4527"><path fill="#fff" transform="rotate(89.202 7.332 7.435)" d="M0 0h14v14H0z"/></clipPath></defs></svg>