<svg width="14" height="14" fill="none" xmlns="http://www.w3.org/2000/svg"><path d="M13.755 4.253c-.031-.708-.146-1.195-.31-1.617-.17-.448-.43-.85-.771-1.183a3.281 3.281 0 00-1.18-.768c-.425-.164-.909-.279-1.617-.31-.714-.034-.94-.042-2.751-.042-1.81 0-2.037.008-2.748.04-.708.03-1.195.145-1.617.31-.448.169-.85.429-1.183.77a3.283 3.283 0 00-.768 1.18c-.164.425-.279.91-.31 1.618C.466 4.964.458 5.19.458 7s.008 2.037.04 2.748c.03.709.145 1.196.31 1.618.168.448.431.849.77 1.182.333.339.737.602 1.18.769.425.164.909.278 1.617.31.711.03.938.038 2.748.038 1.81 0 2.037-.007 2.748-.039.709-.03 1.196-.145 1.618-.31a3.41 3.41 0 001.95-1.95c.165-.425.28-.91.31-1.618.032-.71.04-.938.04-2.748 0-1.81-.003-2.037-.034-2.748zm-1.2 5.444c-.03.651-.139 1.003-.23 1.237a2.212 2.212 0 01-1.266 1.266c-.234.091-.589.2-1.237.23-.703.03-.914.038-2.693.038-1.78 0-1.993-.007-2.694-.039-.65-.028-1.002-.138-1.237-.229a2.051 2.051 0 01-.766-.497 2.073 2.073 0 01-.497-.766c-.091-.234-.2-.589-.23-1.237-.03-.704-.038-.915-.038-2.694s.007-1.992.039-2.693c.028-.65.138-1.003.229-1.237.107-.29.276-.552.5-.766a2.07 2.07 0 01.766-.497c.234-.091.588-.2 1.237-.23.703-.03.914-.039 2.693-.039 1.782 0 1.993.008 2.693.04.652.028 1.003.138 1.238.229.289.106.552.276.765.497.222.216.391.477.498.766.091.234.2.589.23 1.237.03.703.038.914.038 2.693 0 1.78-.008 1.988-.039 2.691z" fill="#fff"/><path d="M7.126 3.576a3.426 3.426 0 10.002 6.852 3.426 3.426 0 00-.002-6.852zm0 5.647a2.222 2.222 0 110-4.444 2.222 2.222 0 010 4.444zm4.36-5.783a.8.8 0 11-1.6 0 .8.8 0 011.6 0z" fill="#fff"/></svg>