<svg width="18" height="18" fill="none" xmlns="http://www.w3.org/2000/svg"><path d="M16.582 12.155a28.48 28.48 0 01-2.894-.51 1.428 1.428 0 00-1.377.266c-.244.248-.947.942-1.677 1.658a13.178 13.178 0 01-6.017-6.021c.712-.73 1.378-1.428 1.65-1.672a1.428 1.428 0 00.266-1.378c-.22-.956-.39-1.924-.51-2.898A.918.918 0 004.966.787H1.053a.689.689 0 00-.624.63c-.253 3.53 1.717 7.31 2.117 8.036v.028l.055.105a16.282 16.282 0 005.97 5.971l.203.115c.919.487 4.57 2.324 7.983 2.071a.69.69 0 00.638-.624V13.21a.917.917 0 00-.813-1.056z" fill="#fff"/></svg>