<svg width="13" height="16" fill="none" xmlns="http://www.w3.org/2000/svg"><path d="M6.303.667C2.253.667.102 3.243.102 6.052c0 1.302.733 2.927 1.906 3.442.335.15.29-.033.579-1.127a.258.258 0 00-.063-.254c-1.678-1.927-.328-5.889 3.54-5.889 5.595 0 4.55 7.69.973 7.69-.922 0-1.609-.72-1.392-1.608.264-1.06.78-2.198.78-2.961 0-1.924-2.887-1.639-2.887.91 0 .788.28 1.32.28 1.32s-.928 3.725-1.1 4.421c-.292 1.178.04 3.086.068 3.25.018.09.12.12.177.045.092-.12 1.214-1.71 1.529-2.859.114-.419.584-2.117.584-2.117.31.554 1.202 1.019 2.153 1.019 2.828 0 4.873-2.47 4.873-5.533-.01-2.937-2.541-5.134-5.8-5.134z" fill="#fff"/></svg>