<svg width="15" height="12" fill="none" xmlns="http://www.w3.org/2000/svg"><path d="M14.102 1.848a5.935 5.935 0 01-1.65.433 2.786 2.786 0 001.263-1.52 5.949 5.949 0 01-1.825.668A2.924 2.924 0 009.794.56c-1.586 0-2.872 1.231-2.872 2.75 0 .215.025.425.074.626-2.386-.115-4.503-1.21-5.919-2.873a2.641 2.641 0 00-.388 1.382c0 .954.507 1.796 1.277 2.288a2.97 2.97 0 01-1.301-.345v.035c0 1.331.99 2.443 2.303 2.696a3.03 3.03 0 01-.756.096c-.186 0-.365-.017-.541-.05.366 1.092 1.426 1.887 2.682 1.91a5.927 5.927 0 01-3.566 1.174 6.37 6.37 0 01-.685-.037 8.381 8.381 0 004.402 1.237c5.283 0 8.17-4.19 8.17-7.824l-.009-.356a5.608 5.608 0 001.437-1.42z" fill="#fff"/></svg>